<?xml version="1.0" encoding="UTF-8"?>
<!DOCTYPE svg PUBLIC "-//W3C//DTD SVG 1.1//EN" "http://www.w3.org/Graphics/SVG/1.1/DTD/svg11.dtd">
<svg xmlns="http://www.w3.org/2000/svg" version="1.1" width="512px" height="512px" style="shape-rendering:geometricPrecision; text-rendering:geometricPrecision; image-rendering:optimizeQuality; fill-rule:evenodd; clip-rule:evenodd" xmlns:xlink="http://www.w3.org/1999/xlink">
<g><path style="opacity:1" fill="#f9f9f9" d="M -0.5,-0.5 C 170.167,-0.5 340.833,-0.5 511.5,-0.5C 511.5,170.167 511.5,340.833 511.5,511.5C 340.833,511.5 170.167,511.5 -0.5,511.5C -0.5,340.833 -0.5,170.167 -0.5,-0.5 Z"/></g>
<g><path style="opacity:1" fill="#d52209" d="M 266.5,111.5 C 265.596,110.791 265.263,109.791 265.5,108.5C 258.776,108.244 252.109,108.577 245.5,109.5C 245.353,98.7947 248.853,89.4614 256,81.5C 263.967,89.8987 267.467,99.8987 266.5,111.5 Z"/></g>
<g><path style="opacity:1" fill="#e55b00" d="M 266.5,111.5 C 265.945,114.096 264.945,116.429 263.5,118.5C 263.5,117.5 263.5,116.5 263.5,115.5C 258.073,115.218 252.74,115.551 247.5,116.5C 246.985,114.106 246.319,111.772 245.5,109.5C 252.109,108.577 258.776,108.244 265.5,108.5C 265.263,109.791 265.596,110.791 266.5,111.5 Z"/></g>
<g><path style="opacity:1" fill="#d1b6bd" d="M 432.5,134.5 C 432.167,134.5 431.833,134.5 431.5,134.5C 431.827,124.985 431.494,115.652 430.5,106.5C 430.783,105.711 431.283,105.044 432,104.5C 432.5,114.494 432.666,124.494 432.5,134.5 Z"/></g>
<g><path style="opacity:1" fill="#8d0006" d="M 430.5,106.5 C 431.494,115.652 431.827,124.985 431.5,134.5C 431.5,135.167 431.167,135.5 430.5,135.5C 430.826,126.651 430.493,117.984 429.5,109.5C 430.11,108.609 430.443,107.609 430.5,106.5 Z"/></g>
<g><path style="opacity:1" fill="#f08706" d="M 263.5,118.5 C 262.053,123.388 259.553,127.721 256,131.5C 252.648,126.797 249.815,121.797 247.5,116.5C 252.74,115.551 258.073,115.218 263.5,115.5C 263.5,116.5 263.5,117.5 263.5,118.5 Z"/></g>
<g><path style="opacity:1" fill="#e35700" d="M 110.5,140.5 C 109.402,141.601 109.235,142.934 110,144.5C 111,143.167 112,143.167 113,144.5C 113.667,150.833 113.667,157.167 113,163.5C 112.667,163.833 112.333,164.167 112,164.5C 110.839,159.584 110.173,154.584 110,149.5C 110.122,155.26 109.289,160.593 107.5,165.5C 103.243,162.749 99.4097,159.416 96,155.5C 90.0878,149.307 84.9211,142.64 80.5,135.5C 80.3335,125.494 80.5002,115.494 81,105.5C 88.4851,119.131 98.3185,130.798 110.5,140.5 Z"/></g>
<g><path style="opacity:1" fill="#8a0f38" d="M 429.5,109.5 C 430.493,117.984 430.826,126.651 430.5,135.5C 427.64,141.365 423.973,146.698 419.5,151.5C 413.5,157.167 407.5,162.833 401.5,168.5C 401.389,167.883 401.056,167.383 400.5,167C 402.303,163.897 404.47,161.063 407,158.5C 407.831,151.808 407.664,145.142 406.5,138.5C 405.583,139.127 404.583,139.461 403.5,139.5C 413.258,130.411 421.925,120.411 429.5,109.5 Z"/></g>
<g><path style="opacity:1" fill="#2a5e75" d="M 286.5,147.5 C 281.544,147.621 276.544,147.288 271.5,146.5C 270.5,146.5 269.5,146.5 268.5,146.5C 264.413,146.186 260.579,145.186 257,143.5C 256.501,147.821 256.334,152.154 256.5,156.5C 256.5,159.833 256.5,163.167 256.5,166.5C 256.5,167.833 256.5,169.167 256.5,170.5C 256.167,170.5 255.833,170.5 255.5,170.5C 255.5,161.167 255.5,151.833 255.5,142.5C 266.813,138.658 277.146,140.325 286.5,147.5 Z"/></g>
<g><path style="opacity:1" fill="#ed7f02" d="M 431.5,134.5 C 431.833,134.5 432.167,134.5 432.5,134.5C 433.576,152.96 429.742,170.293 421,186.5C 419.483,188.24 417.983,189.906 416.5,191.5C 416.565,191.062 416.399,190.728 416,190.5C 414.89,192.037 413.39,192.703 411.5,192.5C 411.959,182.377 411.959,172.377 411.5,162.5C 414.182,158.822 416.849,155.155 419.5,151.5C 423.973,146.698 427.64,141.365 430.5,135.5C 431.167,135.5 431.5,135.167 431.5,134.5 Z"/></g>
<g><path style="opacity:1" fill="#047983" d="M 268.5,146.5 C 265.505,149.851 266.005,152.518 270,154.5C 273.995,152.518 274.495,149.851 271.5,146.5C 276.544,147.288 281.544,147.621 286.5,147.5C 288.595,148.412 290.595,149.579 292.5,151C 287.517,152.488 283.184,154.988 279.5,158.5C 277.488,159.014 275.488,159.18 273.5,159C 274.167,158.667 274.833,158.333 275.5,158C 274.167,157.833 272.833,157.667 271.5,157.5C 268.787,157.55 266.787,158.217 265.5,159.5C 262.1,159.366 259.1,158.366 256.5,156.5C 256.334,152.154 256.501,147.821 257,143.5C 260.579,145.186 264.413,146.186 268.5,146.5 Z"/></g>
<g><path style="opacity:1" fill="#eff4f4" d="M 268.5,146.5 C 269.5,146.5 270.5,146.5 271.5,146.5C 274.495,149.851 273.995,152.518 270,154.5C 266.005,152.518 265.505,149.851 268.5,146.5 Z"/></g>
<g><path style="opacity:1" fill="#e14c00" d="M 110.5,140.5 C 122.03,149.433 134.363,157.1 147.5,163.5C 148.016,165.2 149.016,166.533 150.5,167.5C 150.833,169 151.167,170.5 151.5,172C 150.898,177.824 150.398,183.658 150,189.5C 149.333,190.833 148.667,192.167 148,193.5C 146.291,191.825 144.624,190.158 143,188.5C 141.397,188.871 139.897,189.205 138.5,189.5C 137.609,188.89 136.609,188.557 135.5,188.5C 128.524,183.198 121.524,177.864 114.5,172.5C 111.861,170.527 109.527,168.194 107.5,165.5C 109.289,160.593 110.122,155.26 110,149.5C 110.173,154.584 110.839,159.584 112,164.5C 112.333,164.167 112.667,163.833 113,163.5C 113.667,157.167 113.667,150.833 113,144.5C 112,143.167 111,143.167 110,144.5C 109.235,142.934 109.402,141.601 110.5,140.5 Z"/></g>
<g><path style="opacity:1" fill="#ed7f01" d="M 80.5,135.5 C 84.9211,142.64 90.0878,149.307 96,155.5C 99.4097,159.416 103.243,162.749 107.5,165.5C 109.527,168.194 111.861,170.527 114.5,172.5C 113.671,173.332 112.838,172.999 112,171.5C 111.333,173.5 111.333,175.5 112,177.5C 112.333,176.833 112.667,176.167 113,175.5C 113.167,177.5 113.333,179.5 113.5,181.5C 113.008,184.687 112.342,187.52 111.5,190C 112.331,193.651 112.164,197.151 111,200.5C 109.644,199.62 108.144,199.286 106.5,199.5C 97.2932,195.141 90.7932,188.141 87,178.5C 81.3701,164.718 79.2034,150.385 80.5,135.5 Z"/></g>
<g><path style="opacity:1" fill="#7e113d" d="M 401.5,168.5 C 399.527,169.806 397.861,171.473 396.5,173.5C 390.143,178.198 383.81,182.865 377.5,187.5C 374.833,189.167 372.167,190.833 369.5,192.5C 369.082,191.778 368.416,191.278 367.5,191C 368.416,190.626 369.25,190.126 370,189.5C 370.832,181.479 370.665,173.479 369.5,165.5C 368.914,165.709 368.414,166.043 368,166.5C 367.764,164.881 366.931,163.881 365.5,163.5C 378.806,156.514 391.472,148.514 403.5,139.5C 404.583,139.461 405.583,139.127 406.5,138.5C 407.664,145.142 407.831,151.808 407,158.5C 404.47,161.063 402.303,163.897 400.5,167C 401.056,167.383 401.389,167.883 401.5,168.5 Z"/></g>
<g><path style="opacity:1" fill="#2d826f" d="M 256.5,156.5 C 259.1,158.366 262.1,159.366 265.5,159.5C 266.787,158.217 268.787,157.55 271.5,157.5C 272.833,157.667 274.167,157.833 275.5,158C 274.833,158.333 274.167,158.667 273.5,159C 275.488,159.18 277.488,159.014 279.5,158.5C 277.884,160.738 276.551,163.071 275.5,165.5C 269.077,165.209 262.744,165.542 256.5,166.5C 256.5,163.167 256.5,159.833 256.5,156.5 Z"/></g>
<g><path style="opacity:1" fill="#711243" d="M 365.5,163.5 C 366.931,163.881 367.764,164.881 368,166.5C 368.414,166.043 368.914,165.709 369.5,165.5C 370.665,173.479 370.832,181.479 370,189.5C 369.25,190.126 368.416,190.626 367.5,191C 368.416,191.278 369.082,191.778 369.5,192.5C 360.458,198.021 351.124,203.021 341.5,207.5C 339.621,207.607 339.288,207.107 340.5,206C 343.796,204.776 346.629,202.942 349,200.5C 349.333,191.5 349.667,182.5 350,173.5C 351.419,172.54 352.919,171.707 354.5,171C 353.437,169.812 352.103,169.312 350.5,169.5C 355.117,166.734 360.117,164.734 365.5,163.5 Z"/></g>
<g><path style="opacity:1" fill="#e97300" d="M 419.5,151.5 C 416.849,155.155 414.182,158.822 411.5,162.5C 411.959,172.377 411.959,182.377 411.5,192.5C 413.39,192.703 414.89,192.037 416,190.5C 416.399,190.728 416.565,191.062 416.5,191.5C 411.541,196.985 405.541,200.985 398.5,203.5C 397.5,203.5 396.5,203.5 395.5,203.5C 394.569,194.49 394.236,185.657 394.5,177C 395.823,176.184 396.489,175.017 396.5,173.5C 397.861,171.473 399.527,169.806 401.5,168.5C 407.5,162.833 413.5,157.167 419.5,151.5 Z"/></g>
<g><path style="opacity:1" fill="#e03e00" d="M 147.5,163.5 C 160.338,167.836 173.005,172.669 185.5,178C 190.903,180.692 195.903,183.858 200.5,187.5C 200.892,195.912 200.892,204.246 200.5,212.5C 201.154,214.115 201.654,215.782 202,217.5C 203.011,218.337 204.178,218.67 205.5,218.5C 205.662,220.527 205.495,222.527 205,224.5C 204.329,225.252 203.496,225.586 202.5,225.5C 202.167,225.5 201.833,225.5 201.5,225.5C 180.405,213.782 159.405,201.782 138.5,189.5C 139.897,189.205 141.397,188.871 143,188.5C 144.624,190.158 146.291,191.825 148,193.5C 148.667,192.167 149.333,190.833 150,189.5C 150.398,183.658 150.898,177.824 151.5,172C 151.167,170.5 150.833,169 150.5,167.5C 149.016,166.533 148.016,165.2 147.5,163.5 Z"/></g>
<g><path style="opacity:1" fill="#618356" d="M 275.5,165.5 C 275.5,168.5 275.5,171.5 275.5,174.5C 269.108,174.249 262.775,174.582 256.5,175.5C 256.5,173.833 256.5,172.167 256.5,170.5C 256.5,169.167 256.5,167.833 256.5,166.5C 262.744,165.542 269.077,165.209 275.5,165.5 Z"/></g>
<g><path style="opacity:1" fill="#848644" d="M 275.5,174.5 C 276.486,176.426 277.486,178.426 278.5,180.5C 271.167,180.5 263.833,180.5 256.5,180.5C 256.5,178.833 256.5,177.167 256.5,175.5C 262.775,174.582 269.108,174.249 275.5,174.5 Z"/></g>
<g><path style="opacity:1" fill="#820c36" d="M 255.5,142.5 C 255.5,151.833 255.5,161.167 255.5,170.5C 255.5,176.833 255.5,183.167 255.5,189.5C 254.686,187.369 254.186,185.036 254,182.5C 253.798,184.256 253.298,185.922 252.5,187.5C 251.692,187.192 251.025,186.692 250.5,186C 251.956,185.577 252.456,184.744 252,183.5C 248.711,184.015 245.211,184.848 241.5,186C 243.833,186.333 246.167,186.667 248.5,187C 243.833,187.667 239.167,187.667 234.5,187C 236.5,186.667 238.5,186.333 240.5,186C 240,185.5 239.5,185 239,184.5C 236.053,184.951 232.887,185.617 229.5,186.5C 233.038,174.092 238.205,162.426 245,151.5C 248.078,147.915 251.578,144.915 255.5,142.5 Z"/></g>
<g><path style="opacity:1" fill="#e87200" d="M 114.5,172.5 C 121.524,177.864 128.524,183.198 135.5,188.5C 134.233,187.913 133.233,187.913 132.5,188.5C 133.418,194.625 133.585,200.625 133,206.5C 132.411,208.863 130.911,209.863 128.5,209.5C 127.833,209.5 127.167,209.5 126.5,209.5C 119.36,207.12 112.694,203.786 106.5,199.5C 108.144,199.286 109.644,199.62 111,200.5C 112.164,197.151 112.331,193.651 111.5,190C 112.342,187.52 113.008,184.687 113.5,181.5C 113.333,179.5 113.167,177.5 113,175.5C 112.667,176.167 112.333,176.833 112,177.5C 111.333,175.5 111.333,173.5 112,171.5C 112.838,172.999 113.671,173.332 114.5,172.5 Z"/></g>
<g><path style="opacity:1" fill="#e76501" d="M 396.5,173.5 C 396.489,175.017 395.823,176.184 394.5,177C 394.236,185.657 394.569,194.49 395.5,203.5C 396.5,203.5 397.5,203.5 398.5,203.5C 394.588,205.692 390.588,207.692 386.5,209.5C 383.539,210.323 380.539,210.99 377.5,211.5C 378.469,203.096 378.469,195.096 377.5,187.5C 383.81,182.865 390.143,178.198 396.5,173.5 Z"/></g>
<g><path style="opacity:1" fill="#6b144a" d="M 350.5,169.5 C 352.103,169.312 353.437,169.812 354.5,171C 352.919,171.707 351.419,172.54 350,173.5C 349.667,182.5 349.333,191.5 349,200.5C 346.629,202.942 343.796,204.776 340.5,206C 339.288,207.107 339.621,207.607 341.5,207.5C 333.368,212.737 325.035,217.737 316.5,222.5C 316.167,222.5 315.833,222.5 315.5,222.5C 314.761,222.631 314.094,222.464 313.5,222C 314.673,212.511 314.673,202.845 313.5,193C 314.99,190.596 316.324,188.096 317.5,185.5C 317.376,184.893 317.043,184.56 316.5,184.5C 326.903,177.581 338.236,172.581 350.5,169.5 Z"/></g>
<g><path style="opacity:1" fill="#a28833" d="M 256.5,180.5 C 263.833,180.5 271.167,180.5 278.5,180.5C 279.441,182.05 280.107,183.716 280.5,185.5C 272.599,186.813 264.599,186.813 256.5,185.5C 256.5,183.833 256.5,182.167 256.5,180.5 Z"/></g>
<g><path style="opacity:1" fill="#b98c1f" d="M 256.5,185.5 C 264.599,186.813 272.599,186.813 280.5,185.5C 282.071,187.635 283.404,189.968 284.5,192.5C 275.533,191.751 266.533,191.251 257.5,191C 256.594,189.301 256.261,187.467 256.5,185.5 Z"/></g>
<g><path style="opacity:1" fill="#641750" d="M 316.5,184.5 C 317.043,184.56 317.376,184.893 317.5,185.5C 316.324,188.096 314.99,190.596 313.5,193C 314.673,202.845 314.673,212.511 313.5,222C 314.094,222.464 314.761,222.631 315.5,222.5C 310.981,225.929 306.648,229.596 302.5,233.5C 296.871,237.461 291.871,242.127 287.5,247.5C 283.763,251.302 280.763,255.635 278.5,260.5C 273.769,266.949 269.769,273.949 266.5,281.5C 267.127,282.417 267.461,283.417 267.5,284.5C 266.883,284.389 266.383,284.056 266,283.5C 264.564,287.98 263.064,292.313 261.5,296.5C 260.58,264.15 269.247,234.816 287.5,208.5C 296.001,198.991 305.668,190.991 316.5,184.5 Z"/></g>
<g><path style="opacity:1" fill="#c00422" d="M 118.5,208.5 C 116.801,208.34 115.134,208.506 113.5,209C 113.833,209.333 114.167,209.667 114.5,210C 110.907,210.684 110.573,212.184 113.5,214.5C 114.167,214.167 114.833,213.833 115.5,213.5C 115.833,215 116.167,216.5 116.5,218C 117.396,224.469 117.396,230.802 116.5,237C 120.672,238.451 124.839,238.284 129,236.5C 130.906,237.131 132.906,237.464 135,237.5C 137.302,237.4 139.302,236.733 141,235.5C 142.946,238.42 145.113,241.087 147.5,243.5C 117.494,245.431 97.3278,232.431 87,204.5C 84.8159,199.3 83.4826,193.966 83,188.5C 87.5427,193.187 92.7094,197.02 98.5,200C 105.14,203.161 111.807,205.994 118.5,208.5 Z"/></g>
<g><path style="opacity:1" fill="#be0223" d="M 364.5,243.5 C 362.167,243.5 359.833,243.5 357.5,243.5C 352.288,242.508 346.954,241.508 341.5,240.5C 344.472,238.359 346.972,235.692 349,232.5C 349.034,234.18 349.201,235.68 349.5,237C 354.711,238.676 358.711,237.343 361.5,233C 360.939,231.434 361.606,230.101 363.5,229C 362.934,226.639 363.934,224.806 366.5,223.5C 365.814,221.936 365.981,220.269 367,218.5C 367.654,219.696 368.154,219.696 368.5,218.5C 366.703,216.248 364.37,215.248 361.5,215.5C 366.814,214.505 372.148,213.171 377.5,211.5C 380.539,210.99 383.539,210.323 386.5,209.5C 402.672,206.996 416.839,200.329 429,189.5C 426.242,205.849 419.075,220.016 407.5,232C 394.515,240.569 380.182,244.402 364.5,243.5 Z"/></g>
<g><path style="opacity:1" fill="#e45402" d="M 377.5,187.5 C 378.469,195.096 378.469,203.096 377.5,211.5C 372.148,213.171 366.814,214.505 361.5,215.5C 354.546,215.439 347.879,216.439 341.5,218.5C 333.334,219.306 325.334,220.973 317.5,223.5C 316.893,223.376 316.56,223.043 316.5,222.5C 325.035,217.737 333.368,212.737 341.5,207.5C 351.124,203.021 360.458,198.021 369.5,192.5C 372.167,190.833 374.833,189.167 377.5,187.5 Z"/></g>
<g><path style="opacity:1" fill="#e66300" d="M 135.5,188.5 C 136.609,188.557 137.609,188.89 138.5,189.5C 159.405,201.782 180.405,213.782 201.5,225.5C 191.424,222.065 181.091,219.731 170.5,218.5C 161.728,216.462 152.728,214.962 143.5,214C 138.244,212.942 133.244,211.442 128.5,209.5C 130.911,209.863 132.411,208.863 133,206.5C 133.585,200.625 133.418,194.625 132.5,188.5C 133.233,187.913 134.233,187.913 135.5,188.5 Z"/></g>
<g><path style="opacity:1" fill="#dd340a" d="M 200.5,187.5 C 208.74,192.737 216.407,198.737 223.5,205.5C 229.49,212.799 234.49,220.799 238.5,229.5C 244.183,241.896 247.85,254.896 249.5,268.5C 249.822,274.358 249.489,280.025 248.5,285.5C 247.167,282.167 245.833,278.833 244.5,275.5C 240.927,269.359 237.094,263.359 233,257.5C 232.283,258.044 231.783,258.711 231.5,259.5C 229.926,259.063 228.759,258.063 228,256.5C 226.627,253.588 225.127,250.754 223.5,248C 224.056,247.617 224.389,247.117 224.5,246.5C 220.5,241.833 216.167,237.5 211.5,233.5C 208.5,230.833 205.5,228.167 202.5,225.5C 203.496,225.586 204.329,225.252 205,224.5C 205.495,222.527 205.662,220.527 205.5,218.5C 204.178,218.67 203.011,218.337 202,217.5C 201.654,215.782 201.154,214.115 200.5,212.5C 200.892,204.246 200.892,195.912 200.5,187.5 Z"/></g>
<g><path style="opacity:1" fill="#94062d" d="M 255.5,189.5 C 255.5,204.833 255.5,220.167 255.5,235.5C 254.492,232.4 253.826,229.4 253.5,226.5C 248.869,225.338 244.202,225.172 239.5,226C 240.8,227.579 240.466,228.745 238.5,229.5C 234.49,220.799 229.49,212.799 223.5,205.5C 225.213,199.075 227.213,192.742 229.5,186.5C 232.887,185.617 236.053,184.951 239,184.5C 239.5,185 240,185.5 240.5,186C 238.5,186.333 236.5,186.667 234.5,187C 239.167,187.667 243.833,187.667 248.5,187C 246.167,186.667 243.833,186.333 241.5,186C 245.211,184.848 248.711,184.015 252,183.5C 252.456,184.744 251.956,185.577 250.5,186C 251.025,186.692 251.692,187.192 252.5,187.5C 253.298,185.922 253.798,184.256 254,182.5C 254.186,185.036 254.686,187.369 255.5,189.5 Z"/></g>
<g><path style="opacity:1" fill="#e98a04" d="M 255.5,170.5 C 255.833,170.5 256.167,170.5 256.5,170.5C 256.5,172.167 256.5,173.833 256.5,175.5C 256.5,177.167 256.5,178.833 256.5,180.5C 256.5,182.167 256.5,183.833 256.5,185.5C 256.261,187.467 256.594,189.301 257.5,191C 266.533,191.251 275.533,191.751 284.5,192.5C 286.749,197.586 287.749,202.919 287.5,208.5C 269.247,234.816 260.58,264.15 261.5,296.5C 261.14,312.833 260.807,329.166 260.5,345.5C 259.194,348.338 258.027,351.338 257,354.5C 255.987,324.508 255.487,294.508 255.5,264.5C 255.5,254.833 255.5,245.167 255.5,235.5C 255.5,220.167 255.5,204.833 255.5,189.5C 255.5,183.167 255.5,176.833 255.5,170.5 Z"/></g>
<g><path style="opacity:1" fill="#b60024" d="M 118.5,208.5 C 121.167,208.833 123.833,209.167 126.5,209.5C 127.167,209.5 127.833,209.5 128.5,209.5C 133.244,211.442 138.244,212.942 143.5,214C 152.728,214.962 161.728,216.462 170.5,218.5C 172.144,220.554 173.811,223.054 175.5,226C 180.778,225.621 180.778,226.621 175.5,229C 176.542,230.918 177.708,232.751 179,234.5C 179.333,234.167 179.667,233.833 180,233.5C 182.643,234.965 185.143,235.965 187.5,236.5C 190.327,235.337 192.994,235.337 195.5,236.5C 193.708,236.366 192.042,236.699 190.5,237.5C 179.857,239.33 169.19,240.997 158.5,242.5C 154.881,243.244 151.215,243.577 147.5,243.5C 145.113,241.087 142.946,238.42 141,235.5C 139.302,236.733 137.302,237.4 135,237.5C 132.906,237.464 130.906,237.131 129,236.5C 124.839,238.284 120.672,238.451 116.5,237C 117.396,230.802 117.396,224.469 116.5,218C 116.167,216.5 115.833,215 115.5,213.5C 114.833,213.833 114.167,214.167 113.5,214.5C 110.573,212.184 110.907,210.684 114.5,210C 114.167,209.667 113.833,209.333 113.5,209C 115.134,208.506 116.801,208.34 118.5,208.5 Z"/></g>
<g><path style="opacity:1" fill="#a7012a" d="M 361.5,215.5 C 364.37,215.248 366.703,216.248 368.5,218.5C 368.154,219.696 367.654,219.696 367,218.5C 365.981,220.269 365.814,221.936 366.5,223.5C 363.934,224.806 362.934,226.639 363.5,229C 361.606,230.101 360.939,231.434 361.5,233C 358.711,237.343 354.711,238.676 349.5,237C 349.201,235.68 349.034,234.18 349,232.5C 346.972,235.692 344.472,238.359 341.5,240.5C 336.833,239.833 332.167,239.167 327.5,238.5C 326.791,237.596 325.791,237.263 324.5,237.5C 326.357,236.246 328.357,236.246 330.5,237.5C 335.896,234.714 339.396,230.38 341,224.5C 341.061,222.314 341.228,220.314 341.5,218.5C 347.879,216.439 354.546,215.439 361.5,215.5 Z"/></g>
<g><path style="opacity:1" fill="#99042a" d="M 341.5,218.5 C 341.228,220.314 341.061,222.314 341,224.5C 339.396,230.38 335.896,234.714 330.5,237.5C 328.357,236.246 326.357,236.246 324.5,237.5C 317.12,236.256 309.787,234.923 302.5,233.5C 306.648,229.596 310.981,225.929 315.5,222.5C 315.833,222.5 316.167,222.5 316.5,222.5C 316.56,223.043 316.893,223.376 317.5,223.5C 325.334,220.973 333.334,219.306 341.5,218.5 Z"/></g>
<g><path style="opacity:1" fill="#9f0126" d="M 170.5,218.5 C 181.091,219.731 191.424,222.065 201.5,225.5C 201.833,225.5 202.167,225.5 202.5,225.5C 205.5,228.167 208.5,230.833 211.5,233.5C 206.111,234.245 200.778,235.245 195.5,236.5C 192.994,235.337 190.327,235.337 187.5,236.5C 185.143,235.965 182.643,234.965 180,233.5C 179.667,233.833 179.333,234.167 179,234.5C 177.708,232.751 176.542,230.918 175.5,229C 180.778,226.621 180.778,225.621 175.5,226C 173.811,223.054 172.144,220.554 170.5,218.5 Z"/></g>
<g><path style="opacity:1" fill="#a60029" d="M 255.5,235.5 C 255.5,245.167 255.5,254.833 255.5,264.5C 253.94,266.429 251.94,267.762 249.5,268.5C 247.85,254.896 244.183,241.896 238.5,229.5C 240.466,228.745 240.8,227.579 239.5,226C 244.202,225.172 248.869,225.338 253.5,226.5C 253.826,229.4 254.492,232.4 255.5,235.5 Z"/></g>
<g><path style="opacity:1" fill="#034061" d="M 302.5,233.5 C 309.787,234.923 317.12,236.256 324.5,237.5C 325.791,237.263 326.791,237.596 327.5,238.5C 325.801,238.34 324.134,238.506 322.5,239C 322.833,239.333 323.167,239.667 323.5,240C 319.508,246.127 316.175,252.627 313.5,259.5C 312.167,259.167 310.833,258.833 309.5,258.5C 302.752,253.793 295.419,250.126 287.5,247.5C 291.871,242.127 296.871,237.461 302.5,233.5 Z"/></g>
<g><path style="opacity:1" fill="#102f5b" d="M 211.5,233.5 C 216.167,237.5 220.5,241.833 224.5,246.5C 216.173,250.328 208.173,254.662 200.5,259.5C 198.5,260.5 196.5,261.5 194.5,262.5C 195.174,260.976 196.174,259.642 197.5,258.5C 196.041,256.417 194.708,254.25 193.5,252C 194.458,250.853 194.125,249.853 192.5,249C 193.167,248.667 193.833,248.333 194.5,248C 191.13,245.357 189.796,241.857 190.5,237.5C 192.042,236.699 193.708,236.366 195.5,236.5C 200.778,235.245 206.111,234.245 211.5,233.5 Z"/></g>
<g><path style="opacity:1" fill="#014e69" d="M 147.5,243.5 C 151.215,243.577 154.881,243.244 158.5,242.5C 160.803,243.231 163.136,243.564 165.5,243.5C 163.876,244.869 163.376,246.536 164,248.5C 168.372,255.91 172.205,263.577 175.5,271.5C 147.772,286.659 124.605,281.659 106,256.5C 101.802,250.43 98.4688,244.097 96,237.5C 102.366,241.066 109.2,243.233 116.5,244C 127.008,244.825 137.342,244.659 147.5,243.5 Z"/></g>
<g><path style="opacity:1" fill="#0d4264" d="M 190.5,237.5 C 189.796,241.857 191.13,245.357 194.5,248C 193.833,248.333 193.167,248.667 192.5,249C 194.125,249.853 194.458,250.853 193.5,252C 194.708,254.25 196.041,256.417 197.5,258.5C 196.174,259.642 195.174,260.976 194.5,262.5C 191.069,264.93 187.403,266.93 183.5,268.5C 180.828,269.501 178.162,270.501 175.5,271.5C 172.205,263.577 168.372,255.91 164,248.5C 163.376,246.536 163.876,244.869 165.5,243.5C 163.136,243.564 160.803,243.231 158.5,242.5C 169.19,240.997 179.857,239.33 190.5,237.5 Z"/></g>
<g><path style="opacity:1" fill="#035a73" d="M 342.5,273.5 C 342.196,272.85 341.863,272.183 341.5,271.5C 347.547,261.392 352.88,252.059 357.5,243.5C 359.833,243.5 362.167,243.5 364.5,243.5C 379.182,245.318 393.849,244.485 408.5,241C 411.102,240.023 413.602,238.856 416,237.5C 411.109,251.1 402.942,262.6 391.5,272C 375.389,281.487 359.055,281.987 342.5,273.5 Z"/></g>
<g><path style="opacity:1" fill="#004e6a" d="M 327.5,238.5 C 332.167,239.167 336.833,239.833 341.5,240.5C 346.954,241.508 352.288,242.508 357.5,243.5C 352.88,252.059 347.547,261.392 341.5,271.5C 341.863,272.183 342.196,272.85 342.5,273.5C 335.384,270.775 328.384,267.775 321.5,264.5C 318.605,263.201 315.938,261.535 313.5,259.5C 316.175,252.627 319.508,246.127 323.5,240C 323.167,239.667 322.833,239.333 322.5,239C 324.134,238.506 325.801,238.34 327.5,238.5 Z"/></g>
<g><path style="opacity:1" fill="#015974" d="M 287.5,247.5 C 295.419,250.126 302.752,253.793 309.5,258.5C 309.451,260.707 308.617,263.04 307,265.5C 302.543,272.431 298.376,279.431 294.5,286.5C 293.263,285.035 292.263,283.368 291.5,281.5C 287.403,274.296 283.07,267.296 278.5,260.5C 280.763,255.635 283.763,251.302 287.5,247.5 Z"/></g>
<g><path style="opacity:1" fill="#e34a01" d="M 224.5,246.5 C 224.389,247.117 224.056,247.617 223.5,248C 225.127,250.754 226.627,253.588 228,256.5C 228.759,258.063 229.926,259.063 231.5,259.5C 228.779,264.663 226.446,269.996 224.5,275.5C 221.752,280.666 218.752,285.666 215.5,290.5C 215.286,288.856 215.62,287.356 216.5,286C 213.065,278.297 209.232,270.797 205,263.5C 203.333,262.267 201.833,260.933 200.5,259.5C 208.173,254.662 216.173,250.328 224.5,246.5 Z"/></g>
<g><path style="opacity:1" fill="#066881" d="M 309.5,258.5 C 310.833,258.833 312.167,259.167 313.5,259.5C 315.938,261.535 318.605,263.201 321.5,264.5C 323.794,266.653 326.46,268.32 329.5,269.5C 328.791,270.404 327.791,270.737 326.5,270.5C 326.649,271.552 326.483,272.552 326,273.5C 325.333,274.833 324.667,274.833 324,273.5C 323.385,275.116 322.385,276.449 321,277.5C 320.508,278.549 320.674,279.549 321.5,280.5C 320.463,283.803 318.463,286.303 315.5,288C 316.28,289.073 316.113,290.24 315,291.5C 314.333,290.167 313.667,290.167 313,291.5C 310.626,295.421 309.46,299.421 309.5,303.5C 305.411,300.685 301.745,297.352 298.5,293.5C 296.917,291.337 295.584,289.004 294.5,286.5C 298.376,279.431 302.543,272.431 307,265.5C 308.617,263.04 309.451,260.707 309.5,258.5 Z"/></g>
<g><path style="opacity:1" fill="#3e194b" d="M 278.5,260.5 C 283.07,267.296 287.403,274.296 291.5,281.5C 289.589,281.426 288.422,280.426 288,278.5C 286.915,280.373 285.582,282.04 284,283.5C 282.334,282.66 282.167,283.16 283.5,285C 282.636,286.137 281.636,287.47 280.5,289C 281,289.5 281.5,290 282,290.5C 284,287.833 286,285.167 288,282.5C 286.205,286.896 283.705,291.063 280.5,295C 279.551,295.617 278.718,295.451 278,294.5C 277.558,296.679 276.558,297.345 275,296.5C 274.5,297.667 273.667,298.5 272.5,299C 273.801,300.616 273.801,302.116 272.5,303.5C 271.677,301.013 270.677,298.679 269.5,296.5C 268.962,292.476 268.295,288.476 267.5,284.5C 267.461,283.417 267.127,282.417 266.5,281.5C 269.769,273.949 273.769,266.949 278.5,260.5 Z"/></g>
<g><path style="opacity:1" fill="#8c0730" d="M 244.5,275.5 C 243.833,278.5 243.167,281.5 242.5,284.5C 242.587,281.402 242.087,281.068 241,283.5C 239.507,281.652 237.674,280.819 235.5,281C 236.167,281.667 236.833,282.333 237.5,283C 235.782,283.346 234.115,283.846 232.5,284.5C 231.52,283.019 230.353,281.685 229,280.5C 227.757,281.336 226.59,281.003 225.5,279.5C 227.423,278.692 229.423,278.192 231.5,278C 228.849,277.847 226.516,277.013 224.5,275.5C 226.446,269.996 228.779,264.663 231.5,259.5C 231.783,258.711 232.283,258.044 233,257.5C 237.094,263.359 240.927,269.359 244.5,275.5 Z"/></g>
<g><path style="opacity:1" fill="#e96402" d="M 200.5,259.5 C 201.833,260.933 203.333,262.267 205,263.5C 209.232,270.797 213.065,278.297 216.5,286C 215.62,287.356 215.286,288.856 215.5,290.5C 214.833,291.5 214.167,292.5 213.5,293.5C 209.799,298.201 205.466,302.201 200.5,305.5C 200.66,303.801 200.494,302.134 200,300.5C 194.599,292.29 190.099,283.956 186.5,275.5C 184.867,273.497 182.867,272.164 180.5,271.5C 181.694,270.728 182.694,269.728 183.5,268.5C 187.403,266.93 191.069,264.93 194.5,262.5C 196.5,261.5 198.5,260.5 200.5,259.5 Z"/></g>
<g><path style="opacity:1" fill="#ec7900" d="M 180.5,271.5 C 182.867,272.164 184.867,273.497 186.5,275.5C 190.099,283.956 194.599,292.29 200,300.5C 200.494,302.134 200.66,303.801 200.5,305.5C 196.547,309.979 191.547,312.645 185.5,313.5C 185.519,311.94 185.852,310.44 186.5,309C 182.52,299.69 177.686,290.856 172,282.5C 170.254,280.543 168.088,279.543 165.5,279.5C 170.016,276.073 175.016,273.407 180.5,271.5 Z"/></g>
<g><path style="opacity:1" fill="#037a8e" d="M 329.5,269.5 C 345.632,279.491 362.965,286.657 381.5,291C 366.935,307.785 348.602,315.452 326.5,314C 319.493,312.505 313.826,309.005 309.5,303.5C 309.46,299.421 310.626,295.421 313,291.5C 313.667,290.167 314.333,290.167 315,291.5C 316.113,290.24 316.28,289.073 315.5,288C 318.463,286.303 320.463,283.803 321.5,280.5C 320.674,279.549 320.508,278.549 321,277.5C 322.385,276.449 323.385,275.116 324,273.5C 324.667,274.833 325.333,274.833 326,273.5C 326.483,272.552 326.649,271.552 326.5,270.5C 327.791,270.737 328.791,270.404 329.5,269.5 Z"/></g>
<g><path style="opacity:1" fill="#f18b02" d="M 165.5,279.5 C 168.088,279.543 170.254,280.543 172,282.5C 177.686,290.856 182.52,299.69 186.5,309C 185.852,310.44 185.519,311.94 185.5,313.5C 163.434,315.477 145.101,307.977 130.5,291C 142.572,288.253 154.239,284.42 165.5,279.5 Z"/></g>
<g><path style="opacity:1" fill="#9b062a" d="M 224.5,275.5 C 226.516,277.013 228.849,277.847 231.5,278C 229.423,278.192 227.423,278.692 225.5,279.5C 226.59,281.003 227.757,281.336 229,280.5C 230.353,281.685 231.52,283.019 232.5,284.5C 234.115,283.846 235.782,283.346 237.5,283C 236.833,282.333 236.167,281.667 235.5,281C 237.674,280.819 239.507,281.652 241,283.5C 242.087,281.068 242.587,281.402 242.5,284.5C 242.448,288.198 242.114,291.865 241.5,295.5C 239.947,301.153 237.614,306.486 234.5,311.5C 232.682,313.58 230.349,314.914 227.5,315.5C 226.197,313.063 224.53,310.896 222.5,309C 217.616,308.302 212.949,307.802 208.5,307.5C 208.517,305.435 208.85,303.435 209.5,301.5C 210.833,298.833 212.167,296.167 213.5,293.5C 214.167,292.5 214.833,291.5 215.5,290.5C 218.752,285.666 221.752,280.666 224.5,275.5 Z"/></g>
<g><path style="opacity:1" fill="#4d1d4e" d="M 291.5,281.5 C 292.263,283.368 293.263,285.035 294.5,286.5C 295.584,289.004 296.917,291.337 298.5,293.5C 298.733,295.062 299.4,296.395 300.5,297.5C 295.597,305.746 290.263,313.746 284.5,321.5C 279.013,316.536 275.013,310.536 272.5,303.5C 273.801,302.116 273.801,300.616 272.5,299C 273.667,298.5 274.5,297.667 275,296.5C 276.558,297.345 277.558,296.679 278,294.5C 278.718,295.451 279.551,295.617 280.5,295C 283.705,291.063 286.205,286.896 288,282.5C 286,285.167 284,287.833 282,290.5C 281.5,290 281,289.5 280.5,289C 281.636,287.47 282.636,286.137 283.5,285C 282.167,283.16 282.334,282.66 284,283.5C 285.582,282.04 286.915,280.373 288,278.5C 288.422,280.426 289.589,281.426 291.5,281.5 Z"/></g>
<g><path style="opacity:1" fill="#5d1c4e" d="M 300.5,297.5 C 308.628,309.357 317.962,320.357 328.5,330.5C 311.88,336.443 297.213,333.443 284.5,321.5C 290.263,313.746 295.597,305.746 300.5,297.5 Z"/></g>
<g><path style="opacity:1" fill="#a20525" d="M 267.5,284.5 C 268.295,288.476 268.962,292.476 269.5,296.5C 271.087,305.594 273.087,314.594 275.5,323.5C 275.146,325.541 275.146,327.374 275.5,329C 272.495,332.039 269.328,334.539 266,336.5C 264.872,338.345 264.372,340.345 264.5,342.5C 263.467,339.014 262.633,335.347 262,331.5C 261.5,340.494 261.334,349.494 261.5,358.5C 260.515,354.366 260.182,350.032 260.5,345.5C 260.807,329.166 261.14,312.833 261.5,296.5C 263.064,292.313 264.564,287.98 266,283.5C 266.383,284.056 266.883,284.389 267.5,284.5 Z"/></g>
<g><path style="opacity:1" fill="#ad0522" d="M 209.5,301.5 C 208.85,303.435 208.517,305.435 208.5,307.5C 212.949,307.802 217.616,308.302 222.5,309C 224.53,310.896 226.197,313.063 227.5,315.5C 230.349,314.914 232.682,313.58 234.5,311.5C 227.029,325.916 215.029,333.249 198.5,333.5C 193.895,333.517 189.395,332.85 185,331.5C 183.743,331.15 183.409,330.483 184,329.5C 193.473,320.869 201.973,311.536 209.5,301.5 Z"/></g>
<g><path style="opacity:1" fill="#bf0424" d="M 255.5,264.5 C 255.487,294.508 255.987,324.508 257,354.5C 258.027,351.338 259.194,348.338 260.5,345.5C 260.182,350.032 260.515,354.366 261.5,358.5C 261.92,365.526 262.587,372.526 263.5,379.5C 265.162,387.476 266.829,395.476 268.5,403.5C 270.432,411.629 272.766,419.629 275.5,427.5C 277.305,432.916 279.305,438.249 281.5,443.5C 273.675,450.67 265.175,457.004 256,462.5C 246.201,456.686 237.035,450.019 228.5,442.5C 237.843,423.135 244.177,402.802 247.5,381.5C 250.006,363.112 251.006,344.612 250.5,326C 250.333,313.5 250.167,301 250,288.5C 249.487,287.473 248.987,286.473 248.5,285.5C 249.489,280.025 249.822,274.358 249.5,268.5C 251.94,267.762 253.94,266.429 255.5,264.5 Z"/></g>
<g><path style="opacity:1" fill="#014d6b" d="M 244.5,275.5 C 245.833,278.833 247.167,282.167 248.5,285.5C 248.987,286.473 249.487,287.473 250,288.5C 250.167,301 250.333,313.5 250.5,326C 251.006,344.612 250.006,363.112 247.5,381.5C 246.778,381.082 246.278,380.416 246,379.5C 245.326,380.578 244.326,381.245 243,381.5C 239.973,381.088 237.14,380.421 234.5,379.5C 237.634,371.574 240.467,363.574 243,355.5C 243.936,351.886 244.436,348.22 244.5,344.5C 239.653,344.51 235.153,343.51 231,341.5C 230.329,342.252 229.496,342.586 228.5,342.5C 235.061,327.479 239.394,311.812 241.5,295.5C 242.114,291.865 242.448,288.198 242.5,284.5C 243.167,281.5 243.833,278.5 244.5,275.5 Z"/></g>
<g><path style="opacity:1" fill="#be181a" d="M 275.5,323.5 C 279.268,333.04 283.602,342.373 288.5,351.5C 283.869,355.63 279.369,359.963 275,364.5C 273.589,366.65 272.755,368.984 272.5,371.5C 268.764,362.234 266.098,352.568 264.5,342.5C 264.372,340.345 264.872,338.345 266,336.5C 269.328,334.539 272.495,332.039 275.5,329C 275.146,327.374 275.146,325.541 275.5,323.5 Z"/></g>
<g><path style="opacity:1" fill="#cd240c" d="M 288.5,351.5 C 292.108,357.772 296.108,363.772 300.5,369.5C 298.801,369.34 297.134,369.506 295.5,370C 288.175,375.454 282.508,381.62 278.5,388.5C 276.305,383.915 274.305,379.249 272.5,374.5C 272.5,373.5 272.5,372.5 272.5,371.5C 272.755,368.984 273.589,366.65 275,364.5C 279.369,359.963 283.869,355.63 288.5,351.5 Z"/></g>
<g><path style="opacity:1" fill="#6f113d" d="M 264.5,342.5 C 266.098,352.568 268.764,362.234 272.5,371.5C 272.5,372.5 272.5,373.5 272.5,374.5C 271.395,376.713 271.395,378.88 272.5,381C 272,381.5 271.5,382 271,382.5C 269.43,382.306 267.93,382.306 266.5,382.5C 267.023,380.164 266.523,377.83 265,375.5C 264.79,377.058 264.29,378.391 263.5,379.5C 262.587,372.526 261.92,365.526 261.5,358.5C 261.334,349.494 261.5,340.494 262,331.5C 262.633,335.347 263.467,339.014 264.5,342.5 Z"/></g>
<g><path style="opacity:1" fill="#016981" d="M 234.5,379.5 C 233.687,381.261 232.687,382.928 231.5,384.5C 231.565,384.062 231.399,383.728 231,383.5C 230.667,384.167 230.333,384.833 230,385.5C 226.922,382.748 223.589,380.414 220,378.5C 219.667,378.833 219.333,379.167 219,379.5C 217.247,378.373 215.413,377.373 213.5,376.5C 212.304,374.855 211.304,373.189 210.5,371.5C 217.266,362.301 223.266,352.634 228.5,342.5C 229.496,342.586 230.329,342.252 231,341.5C 235.153,343.51 239.653,344.51 244.5,344.5C 244.436,348.22 243.936,351.886 243,355.5C 240.467,363.574 237.634,371.574 234.5,379.5 Z"/></g>
<g><path style="opacity:1" fill="#d42a02" d="M 300.5,369.5 C 307.597,378.768 315.264,387.602 323.5,396C 315.032,406.461 306.699,416.961 298.5,427.5C 295.167,422.5 291.833,417.5 288.5,412.5C 286.07,406.643 283.403,400.977 280.5,395.5C 279.833,393.167 279.167,390.833 278.5,388.5C 282.508,381.62 288.175,375.454 295.5,370C 297.134,369.506 298.801,369.34 300.5,369.5 Z"/></g>
<g><path style="opacity:1" fill="#027b8e" d="M 210.5,371.5 C 211.304,373.189 212.304,374.855 213.5,376.5C 215.413,377.373 217.247,378.373 219,379.5C 219.333,379.167 219.667,378.833 220,378.5C 223.589,380.414 226.922,382.748 230,385.5C 230.333,384.833 230.667,384.167 231,383.5C 231.399,383.728 231.565,384.062 231.5,384.5C 227.06,396.647 221.56,408.313 215,419.5C 213.933,421.692 212.433,423.358 210.5,424.5C 203.222,414.876 195.889,405.209 188.5,395.5C 196.252,387.754 203.585,379.754 210.5,371.5 Z"/></g>
<g><path style="opacity:1" fill="#800c37" d="M 272.5,374.5 C 274.305,379.249 276.305,383.915 278.5,388.5C 279.167,390.833 279.833,393.167 280.5,395.5C 278.576,399.26 275.743,402.26 272,404.5C 271.085,403.672 270.419,402.672 270,401.5C 269.722,402.416 269.222,403.082 268.5,403.5C 266.829,395.476 265.162,387.476 263.5,379.5C 264.29,378.391 264.79,377.058 265,375.5C 266.523,377.83 267.023,380.164 266.5,382.5C 267.93,382.306 269.43,382.306 271,382.5C 271.5,382 272,381.5 272.5,381C 271.395,378.88 271.395,376.713 272.5,374.5 Z"/></g>
<g><path style="opacity:1" fill="#045d75" d="M 234.5,379.5 C 237.14,380.421 239.973,381.088 243,381.5C 244.326,381.245 245.326,380.578 246,379.5C 246.278,380.416 246.778,381.082 247.5,381.5C 244.177,402.802 237.843,423.135 228.5,442.5C 222.167,436.833 216.167,430.833 210.5,424.5C 212.433,423.358 213.933,421.692 215,419.5C 221.56,408.313 227.06,396.647 231.5,384.5C 232.687,382.928 233.687,381.261 234.5,379.5 Z"/></g>
<g><path style="opacity:1" fill="#920631" d="M 280.5,395.5 C 283.403,400.977 286.07,406.643 288.5,412.5C 287.933,414.03 287.267,415.53 286.5,417C 285.551,417.617 284.718,417.451 284,416.5C 283.768,419.738 282.268,422.238 279.5,424C 279.833,424.333 280.167,424.667 280.5,425C 278.807,425.847 277.14,426.68 275.5,427.5C 272.766,419.629 270.432,411.629 268.5,403.5C 269.222,403.082 269.722,402.416 270,401.5C 270.419,402.672 271.085,403.672 272,404.5C 275.743,402.26 278.576,399.26 280.5,395.5 Z"/></g>
<g><path style="opacity:1" fill="#a00529" d="M 288.5,412.5 C 291.833,417.5 295.167,422.5 298.5,427.5C 293.463,433.538 287.797,438.871 281.5,443.5C 279.305,438.249 277.305,432.916 275.5,427.5C 277.14,426.68 278.807,425.847 280.5,425C 280.167,424.667 279.833,424.333 279.5,424C 282.268,422.238 283.768,419.738 284,416.5C 284.718,417.451 285.551,417.617 286.5,417C 287.267,415.53 287.933,414.03 288.5,412.5 Z"/></g>
</svg>
